<svg id="Сгруппировать_288" data-name="Сгруппировать 288" xmlns="http://www.w3.org/2000/svg" width="64.648" height="49.563" viewBox="0 0 64.648 49.563">
  <path id="Контур_137" data-name="Контур 137" d="M63.57,0H1.077A1.078,1.078,0,0,0,0,1.077V48.486a1.078,1.078,0,0,0,1.077,1.077H63.57a1.078,1.078,0,0,0,1.077-1.077V1.077A1.078,1.078,0,0,0,63.57,0ZM62.493,47.408H2.155V2.155H62.493Zm0,0" fill="#707070"/>
  <path id="Контур_138" data-name="Контур 138" d="M2.127,44.148H58.155a1.078,1.078,0,0,0,1.077-1.077V2.127A1.078,1.078,0,0,0,58.155,1.05H2.127A1.078,1.078,0,0,0,1.05,2.127V43.071A1.078,1.078,0,0,0,2.127,44.148ZM3.2,3.2H57.078V41.994H3.2Zm0,0" transform="translate(2.182 2.182)" fill="#707070"/>
  <path id="Контур_139" data-name="Контур 139" d="M20.017,8.24A1.078,1.078,0,0,0,21.54,6.717l-4.31-4.31A1.078,1.078,0,0,0,15.707,3.93Zm0,0" transform="translate(32.017 4.374)" fill="#707070"/>
  <path id="Контур_140" data-name="Контур 140" d="M19.33,4.507A1.078,1.078,0,0,0,17.807,6.03l2.155,2.155a1.078,1.078,0,0,0,1.524-1.524Zm0,0" transform="translate(36.382 8.738)" fill="#707070"/>
  <path id="Контур_141" data-name="Контур 141" d="M15.83,3.107A1.078,1.078,0,0,0,14.307,4.63L25.081,15.4A1.078,1.078,0,0,0,26.6,13.881Zm0,0" transform="translate(29.107 5.829)" fill="#707070"/>
</svg>
