<svg xmlns="http://www.w3.org/2000/svg" xmlns:xlink="http://www.w3.org/1999/xlink" width="55" height="54" viewBox="0 0 55 54">
  <defs>
    <clipPath id="clip-path">
      <rect id="Прямоугольник_74" data-name="Прямоугольник 74" width="55" height="54" transform="translate(898 450)" fill="#707070" stroke="#707070" stroke-width="1.8"/>
    </clipPath>
  </defs>
  <g id="Иллюстрация" transform="translate(-898 -450)" clip-path="url(#clip-path)">
    <g id="kitchen" transform="translate(898.5 450)">
      <path id="Контур_124" data-name="Контур 124" d="M12.656,26.156H0V52.313H3.375V54H5.063V52.313H26.052V54h1.688V52.313H49.888V54h1.688V52.313H54V26.156Zm0,24.469H1.688V33.75H12.656Zm0-18.562H1.688V27.844H12.656Zm27,18.563H14.344V27.844H39.656Zm12.656,0H41.344V33.75H52.313Zm0-18.562H41.344V27.844H52.313Z" fill="#707070"/>
      <path id="Контур_125" data-name="Контур 125" d="M9.281,37.125h1.688v4.219H9.281Z" fill="#707070"/>
      <path id="Контур_126" data-name="Контур 126" d="M43.031,37.125h1.688v4.219H43.031Z" fill="#707070"/>
      <path id="Контур_127" data-name="Контур 127" d="M37.125,33.75H16.875V48.094h20.25ZM35.438,46.406H18.563V35.438H35.438Z" fill="#707070"/>
      <path id="Контур_128" data-name="Контур 128" d="M16.875,29.531h20.25v1.688H16.875Z" fill="#707070"/>
      <path id="Контур_129" data-name="Контур 129" d="M18.563,0H0V14.344H18.563ZM8.438,12.656H1.688V1.688h6.75Zm8.438,0h-6.75V1.688h6.75Z" fill="#707070"/>
      <path id="Контур_130" data-name="Контур 130" d="M35.438,14.344H54V0H35.438ZM45.563,1.688h6.75V12.656h-6.75Zm-8.437,0h6.75V12.656h-6.75Z" fill="#707070"/>
      <path id="Контур_131" data-name="Контур 131" d="M21.094,0V13.219l-2.109,2.812h-3.8v1.688H38.813V16.031h-3.8l-2.109-2.812V0Zm1.688,1.688h8.438V12.656H22.781ZM21.094,16.031l1.266-1.687h9.281l1.266,1.688Z" fill="#707070"/>
      <path id="Контур_132" data-name="Контур 132" d="M5.063,4.219H6.75V8.438H5.063Z" fill="#707070"/>
      <path id="Контур_133" data-name="Контур 133" d="M13.5,4.219h1.688V8.438H13.5Z" fill="#707070"/>
      <path id="Контур_134" data-name="Контур 134" d="M39.656,4.219h1.688V8.438H39.656Z" fill="#707070"/>
      <path id="Контур_135" data-name="Контур 135" d="M48.094,4.219h1.688V8.438H48.094Z" fill="#707070"/>
      <path id="Контур_136" data-name="Контур 136" d="M22.781,37.125h9.281v1.688H22.781Z" fill="#707070"/>
    </g>
  </g>
</svg>
