<svg id="Иллюстрация" xmlns="http://www.w3.org/2000/svg" width="56.362" height="56.362" viewBox="0 0 56.362 56.362">
  <path id="Контур_122" data-name="Контур 122" d="M55.19,16.44H46.971V3.43l1.848-1.294A1.174,1.174,0,1,0,47.471.214L.5,33.092a1.174,1.174,0,1,0,1.348,1.922l5.2-3.638V44.621H3.526a1.174,1.174,0,1,0,0,2.348H4.7v8.219a1.174,1.174,0,0,0,1.174,1.174H55.19a1.174,1.174,0,0,0,1.174-1.174V17.614A1.174,1.174,0,0,0,55.19,16.44ZM9.4,29.732,44.622,5.074V16.44H41.1a1.174,1.174,0,0,0,0,2.348h1.174v4.7H31.706a1.174,1.174,0,0,0,0,2.348h1.174v4.7H22.313a1.174,1.174,0,0,0,0,2.348h1.174v4.7H12.919a1.174,1.174,0,1,0,0,2.348h1.174v4.7H9.4ZM54.016,54.014H7.048V46.969h8.219a1.174,1.174,0,0,0,1.174-1.174V39.924h8.219a1.174,1.174,0,0,0,1.174-1.174V32.879h8.219A1.174,1.174,0,0,0,35.229,31.7V25.833h8.219a1.174,1.174,0,0,0,1.174-1.174V18.788h9.394V54.014Z" transform="translate(-0.003 0)" fill="#707070"/>
</svg>
